<svg id="Capa_1" enable-background="new 0 0 512 512" height="512" viewBox="0 0 512 512" width="512" xmlns="http://www.w3.org/2000/svg"><g id="XMLID_1212_"><g id="XMLID_1628_"><path id="XMLID_1631_" d="m236 50c-124.816 0-226 101.184-226 226s101.184 226 226 226 226-101.184 226-226-101.184-226-226-226zm0 262c-19.882 0-36-16.118-36-36s16.118-36 36-36 36 16.118 36 36-16.118 36-36 36z" fill="#8aa8bd"/><circle id="XMLID_1632_" cx="236" cy="276" fill="#fff" r="36"/></g><path id="XMLID_1635_" d="m236 172c-57.438 0-104 46.562-104 104s46.562 104 104 104 104-46.562 104-104-46.562-104-104-104zm0 140c-19.882 0-36-16.118-36-36s16.118-36 36-36 36 16.118 36 36-16.118 36-36 36z" fill="#ff7d97"/><g id="XMLID_1317_" fill="#d5ea79"><path id="XMLID_1310_" d="m502 58.508-116.667 34.72v-48.507l116.667-34.721z"/><circle id="XMLID_41_" cx="352" cy="188.125" r="33.333"/><ellipse id="XMLID_35_" cx="468.667" cy="153.404" rx="33.333" ry="33.333" transform="matrix(.707 -.707 .707 .707 28.796 376.328)"/></g><g id="XMLID_788_"><path id="XMLID_834_" d="m236 230c-25.364 0-46 20.636-46 46s20.636 46 46 46 46-20.636 46-46-20.636-46-46-46zm0 72c-14.336 0-26-11.663-26-26s11.664-26 26-26 26 11.663 26 26-11.664 26-26 26z"/><path id="XMLID_835_" d="m70.666 286c5.523 0 10-4.478 10-10 0-85.651 69.682-155.333 155.333-155.333 5.523 0 10-4.478 10-10s-4.477-10-10-10c-96.679 0-175.333 78.654-175.333 175.333.001 5.523 4.478 10 10 10z"/><path id="XMLID_836_" d="m411.333 276c0-5.522-4.478-10-10-10-5.523 0-10 4.478-10 10 0 85.651-69.682 155.333-155.333 155.333-5.523 0-10 4.477-10 10 0 5.522 4.477 10 10 10 96.679 0 175.333-78.654 175.333-175.333z"/><path id="XMLID_839_" d="m512 10c0-3.157-1.491-6.129-4.022-8.017-2.531-1.887-5.804-2.468-8.831-1.568l-116.667 34.721c-4.24 1.263-7.147 5.161-7.147 9.585v40.752c-40.186-29.52-88.531-45.473-139.333-45.473-46.669 0-91.795 13.602-130.501 39.336-4.599 3.058-5.849 9.265-2.791 13.863 3.058 4.601 9.265 5.849 13.864 2.791 35.414-23.545 76.712-35.99 119.428-35.99 53.054 0 101.693 19.239 139.333 51.091v40.548c-6.741-4.326-14.746-6.847-23.333-6.847-23.894 0-43.333 19.439-43.333 43.333 0 .036.003.071.003.106-19.743-16.374-45.076-26.231-72.67-26.231-62.86 0-114 51.141-114 114s51.14 114 114 114c62.859 0 114-51.141 114-114 0-16.431-3.5-32.059-9.785-46.184 3.75 1.062 7.7 1.642 11.785 1.642 23.894 0 43.333-19.439 43.333-43.333v-57.806c35.175 38.438 56.667 89.595 56.667 145.681 0 119.103-96.897 216-216 216s-216-96.897-216-216c0-42.728 12.452-84.034 36.008-119.455 3.059-4.6 1.81-10.807-2.789-13.865-4.598-3.057-10.806-1.809-13.864 2.789-25.746 38.714-39.355 83.85-39.355 130.531 0 63.038 24.548 122.303 69.123 166.877 44.574 44.575 103.839 69.123 166.877 69.123s122.303-24.548 166.877-69.123c44.575-44.574 69.123-103.839 69.123-166.877 0-27.929-4.828-55.113-14.072-80.611 3.435.879 7.033 1.349 10.739 1.349 23.893 0 43.333-19.439 43.333-43.333v-94.736c0-.031 0-48.669 0-48.669zm-20 13.409v27.641l-96.667 28.769v-27.641zm-256 346.591c-51.832 0-94-42.168-94-94s42.168-94 94-94 94 42.168 94 94-42.168 94-94 94zm116-158.542c-12.866 0-23.333-10.467-23.333-23.333s10.467-23.333 23.333-23.333 23.333 10.467 23.333 23.333-10.467 23.333-23.333 23.333zm50.877-102.335c-2.468-2.468-4.988-4.864-7.544-7.208v-1.229l96.667-28.768v45.001c-6.741-4.326-14.746-6.847-23.333-6.847-18.702 0-34.672 11.909-40.732 28.541-7.472-10.393-15.828-20.26-25.058-29.49zm65.79 67.614c-12.866 0-23.334-10.467-23.334-23.333s10.468-23.333 23.334-23.333 23.333 10.467 23.333 23.333c0 12.867-10.467 23.333-23.333 23.333z"/><path id="XMLID_844_" d="m76.19 126.2c2.63 0 5.21-1.07 7.07-2.94 1.87-1.86 2.93-4.43 2.93-7.07 0-2.63-1.06-5.21-2.93-7.069-1.86-1.86-4.43-2.931-7.07-2.931-2.63 0-5.21 1.07-7.07 2.931-1.86 1.859-2.93 4.439-2.93 7.069 0 2.641 1.07 5.21 2.93 7.07 1.87 1.87 4.44 2.94 7.07 2.94z"/></g></g></svg>